<svg id="Layer_1" data-name="Layer 1" xmlns="http://www.w3.org/2000/svg" viewBox="0 0 1127.189 699.255">
  <path d="M1127.189,699.255H0c12.351-31.5,35.16-58.217,67.313-66.143,47.036-11.581,96.812,20.258,143.743,8.288,26.663-6.794,47.654-26.6,69.711-43.039,83.214-62.042,197.249-80.379,295.716-47.54,51.47,17.156,98.373,47.159,151.1,59.919,68.179,16.5,139.479,2.817,209.59.562C1005.456,609.1,1103.3,636.927,1127.189,699.255Z" fill="#f3f5fd"></path>
  <g>
    <g>
      <rect x="527.739" y="515.352" width="142.505" height="161.31" fill="#dee8f5"></rect>
      <rect x="224.652" width="748.678" height="594.252" rx="27.504" fill="#dee8f5"></rect>
      <rect x="241.703" y="18.758" width="714.573" height="496.049" rx="12.16" fill="#fff"></rect>
      <rect x="464.218" y="662.205" width="269.545" height="37.05" rx="18.525" fill="#dee8f5"></rect>
    </g>
    <rect x="450.846" y="116.265" width="296.291" height="223.27" fill="#dee8f5"></rect>
    <rect x="535.113" y="386.556" width="127.757" height="32.249" fill="#dee8f5"></rect>
    <g>
      <rect x="594.856" y="177.425" width="8.27" height="100.95" fill="#fff"></rect>
      <rect x="548.516" y="223.766" width="100.95" height="8.269" fill="#fff"></rect>
    </g>
  </g>
  <g>
    <path d="M109.964,285.484s8.042-3.454,8.042-24.581l16.165-1.647s-3.332,18.668,4.233,25.3Z" fill="#E98862"></path>
    <path d="M109.638,252.024c.581,6.458,3.561,12.772,9.009,15.289a40.5,40.5,0,0,0,19.079,4.189c17.548,0,17.35-39.918,9.705-48.3s-32.332-5.493-36.342,7.141C109.015,236.882,109.086,245.878,109.638,252.024Z" fill="#E98862"></path>
    <path d="M145.715,236.49c-6.862,30.78-13.181,39.008-29.09,32.845-3.649-1.413-12.388-10.079-13.263-28.52a25.26,25.26,0,0,1,20.7-26.32c31.509-4.382,32.614,24.068,32.614,24.068-15.813,2.711-37.351-1.768-37.351-1.768" fill="#0f1011"></path>
    <path d="M146.456,253.87a6.143,6.143,0,0,1-12.285,0,6.041,6.041,0,0,1,6.142-6.143C144.688,247.942,146.456,250.477,146.456,253.87Z" fill="#E98862"></path>
    <path d="M178.3,688.435l-20.853-2.48c.938-7.893,2-17.374,2.072-18.928,0,.1,0,.182,0,.245h21C180.511,667.9,180.511,669.817,178.3,688.435Z" fill="#E98862"></path>
    <path d="M94.622,690.946l-21-.069s.07-21.685.07-23.6h21C94.692,669.2,94.622,690.946,94.622,690.946Z" fill="#E98862"></path>
    <path d="M186.044,681.174c-1.738-44.009-1.843-90.231-2.387-134.357-7.222-47.593-11.019-99.793-19.934-147.049l-.267.079-.782-5.33L86.6,389.822s-1.984,37.277-2.676,49.7c-3.708,66.588-11.234,173.615-15.713,241.089l36.869,3.115c6.584-66.36,15.322-172.075,21.272-237.48,6.529,33.327,14.687,70.857,20.485,104.579,1.269,43.078,2.33,87.97,2.215,130.978Z" fill="#262626"></path>
    <path d="M120.15,699.068a4.108,4.108,0,0,0,4.076-4.427h0a4.106,4.106,0,0,0-2.659-3.529l-24.442-8.187a3.464,3.464,0,0,0-2.872.319,19.107,19.107,0,0,1-11.468,3.4,17.038,17.038,0,0,1-8.821-3.222,1.546,1.546,0,0,0-2.527,1.2v11.952a2.677,2.677,0,0,0,2.689,2.678Z" fill="#c1d8ed"></path>
    <path d="M203.883,699.068a4.109,4.109,0,0,0,4.077-4.427h0a4.109,4.109,0,0,0-2.659-3.529l-24.443-8.187a3.465,3.465,0,0,0-2.872.319,19.1,19.1,0,0,1-11.468,3.4,17.035,17.035,0,0,1-8.82-3.222,1.547,1.547,0,0,0-2.528,1.2v11.952a2.677,2.677,0,0,0,2.689,2.678Z" fill="#c1d8ed"></path>
    <path d="M199.96,319.56l.465.2-5.816.939,5.71,10.9s21.173,4.955,31.079-6.191a1.887,1.887,0,0,0-1.6-3.13c-5.709.579-15.891,1.269-20.476-.54,2.016-.99,4.691-2.506,4.271-3.412C212.487,315.945,202.9,319.085,199.96,319.56Z" fill="#E98862"></path>
    <polygon points="180.543 325.659 182.423 326.829 180.543 326.829 180.543 325.659" fill="#fd5d76"></polygon>
    <polygon points="436.453 133.979 436.453 326.829 190.823 326.829 180.543 313.499 180.543 133.979 436.453 133.979" fill="#0cbc8b"></polygon>
    <g>
      <polygon points="211.564 268.71 256.69 229.442 307.825 268.71 211.564 268.71" fill="#fff"></polygon>
      <polygon points="264.699 268.71 344.983 211.055 405.434 268.71 264.699 268.71" fill="#fff"></polygon>
      <circle cx="290.858" cy="202.074" r="9.978" fill="#fff"></circle>
    </g>
    <path d="M262.712,319.56l.465.2-5.817.939,5.71,10.9s21.173,4.955,31.08-6.191a1.887,1.887,0,0,0-1.6-3.13c-5.71.579-15.891,1.269-20.476-.54,2.016-.99,4.691-2.506,4.271-3.412C275.239,315.945,265.654,319.085,262.712,319.56Z" fill="#E98862"></path>
    <path d="M259.685,317.081,206.73,334.228l-3.717-7.4H190.827l-26.5-34.35c-3-5.828-8.67-9.61-18.736-10.041-4.014-.172-23.606-.2-37.949-.2-9.637,0-17.548,2.956-22.116,7.525-15.751,15.751,3.582,42.591,3.582,63.6s-9.5,30.418-8.8,41.2c1.1,16.945,83.428,12.941,87.623,3.316,3.856-8.861-2.711-14.7-3.893-38.945l17.305-8.694L186,356.265a10.9,10.9,0,0,0,11.99,3.713L266.4,337.825Zm-94.661,16.944q.246-2.14.507-4.288l2.241,2.906Z" fill="#367CFF"></path>
    <path d="M116.454,239.579s-1.256-12.164-11.945-12.164c-12.693,0-4.026,34.878,1.528,56.205a16.754,16.754,0,0,1-13.822,20.793h0A16.757,16.757,0,0,1,73.12,289.406c-2.569-27.348-1.971-77.808,26.8-76.836,18.693.631,18.693,19.265,18.693,19.265Z" fill="#0f1011"></path>
    <path d="M112.054,234.254a2.5,2.5,0,0,1-.863-4.847,6.372,6.372,0,0,0,3.868-3.074,5.824,5.824,0,0,0,.086-4.021,2.5,2.5,0,0,1,4.646-1.847,10.7,10.7,0,0,1-.144,7.857,11.087,11.087,0,0,1-6.73,5.777A2.486,2.486,0,0,1,112.054,234.254Z" fill="#262626"></path>
  </g>
  <path d="M1003.346,695.676c20.258-4.421,40.09-10.769,59.455-31.639,3.974-4.276,7.842-9.859,6.351-15.513-1.122-4.255-5.166-7.266-9.448-8.315a21.029,21.029,0,0,0-4.868-.553c-.009,0-.017,0-.019,0a41.348,41.348,0,0,0-7.511.815l-.706.137a122.149,122.149,0,0,0-33.811,11.906,4.81,4.81,0,0,1-6.116-7.1,29.121,29.121,0,0,1,3.968-4.375,46.2,46.2,0,0,1,6.974-5.07c3.3-2,6.78-3.731,10.2-5.522a268.29,268.29,0,0,0,36.328-22.852c8.2-6.127,16.285-13.013,20.722-22.236,2.038-4.242,3.229-9.231,1.611-13.65-2.673-7.259-11.774-10.006-19.478-9.209-13.5,1.4-24.945,10.228-35.186,19.124-8.5,7.393-18,15.571-29.256,15.1a9.854,9.854,0,0,1-5.431-1.583c-3.032-2.211-3.468-6.769-2.023-10.234s4.327-6.086,7.108-8.6c16.159-14.6,32.138-29.867,43.416-48.492s17.5-41.225,12.6-62.449c-1.439-6.2-3.876-12.332-8.088-17.112s-10.41-8.083-16.78-7.784c-8.679.394-15.763,7.083-20.754,14.185-17.149,24.377-18.933,55.894-25.666,84.925-1.885,8.127-4.324,16.419-9.8,22.772a5.567,5.567,0,0,1-1.857,1.456c-4.234,1.989-7.449-3.031-8.621-7.157-4.622-16.324-4.563-34.534-14.143-48.539-3.656-5.331-9.081-9.992-15.523-10.5-7.871-.621-15.17,5.371-18.112,12.7s-2.269,15.619-.452,23.3c3.376,14.247,10.49,27.394,19.192,39.164,4.589,6.213,9.834,12.543,10.713,20.21a15.332,15.332,0,0,1-6,13.67,8.985,8.985,0,0,1-6.816,1.6c-2.562-.458-4.784-1.975-6.925-3.449-.9-.619-1.8-1.246-2.708-1.863q-5.363-3.694-10.728-7.4c-9.091-6.274-20.157-12.838-30.518-9-5.292,1.964-9.021,6.4-11.052,11.683a27.544,27.544,0,0,0-1.289,15.041c2.089,10.48,18.341,40.539,25.422,48.54C905.974,671.152,934.03,710.806,1003.346,695.676Z" fill="#8ddbe0"></path>
</svg>